%FSLAX34Y34*%
G04 Gerber Fmt 3.4, Leading zero omitted, Abs format*
G04 (created by PCBNEW (2013-12-05 BZR 4523)-product) date Fri 06 Dec 2013 07:50:23 PM CET*
%MOIN*%
G01*
G70*
G90*
G04 APERTURE LIST*
%ADD10C,0.005906*%
%ADD11O,0.150000X0.085000*%
%ADD12R,0.150000X0.085000*%
%ADD13O,0.059055X0.039370*%
%ADD14R,0.059055X0.039370*%
%ADD15R,0.060000X0.060000*%
%ADD16C,0.060000*%
G04 APERTURE END LIST*
G54D10*
G54D11*
X56000Y-24500D03*
X56000Y-25500D03*
X56000Y-26500D03*
X56000Y-27500D03*
X56000Y-28500D03*
X56000Y-29500D03*
X56000Y-30500D03*
X56000Y-31500D03*
X56000Y-32500D03*
X56000Y-33500D03*
X56000Y-34500D03*
X56000Y-35500D03*
X56000Y-36500D03*
G54D12*
X56000Y-23500D03*
G54D11*
X59000Y-36500D03*
X59000Y-35500D03*
X59000Y-34500D03*
X59000Y-33500D03*
X59000Y-32500D03*
X59000Y-31500D03*
X59000Y-30500D03*
X59000Y-29500D03*
X59000Y-28500D03*
X59000Y-27500D03*
X59000Y-26500D03*
X59000Y-25500D03*
X59000Y-24500D03*
X59000Y-23500D03*
G54D13*
X54000Y-36750D03*
X54000Y-36250D03*
X54000Y-35750D03*
X54000Y-35250D03*
X54000Y-34750D03*
X54000Y-34250D03*
X54000Y-33750D03*
X54000Y-30250D03*
X54000Y-30750D03*
X54000Y-31250D03*
X54000Y-31750D03*
X54000Y-32250D03*
X54000Y-32750D03*
X54000Y-33250D03*
X60250Y-36750D03*
X60250Y-36250D03*
X60250Y-35750D03*
X60250Y-35250D03*
X60250Y-34750D03*
X60250Y-34250D03*
X60250Y-33750D03*
X60250Y-30250D03*
X60250Y-30750D03*
X60250Y-31250D03*
X60250Y-31750D03*
X60250Y-32250D03*
X60250Y-32750D03*
X60250Y-33250D03*
X54750Y-29750D03*
X54750Y-29250D03*
X54750Y-28750D03*
X54750Y-28250D03*
X54750Y-27750D03*
X54750Y-27250D03*
X54750Y-26750D03*
G54D14*
X54750Y-23250D03*
G54D13*
X54750Y-23750D03*
X54750Y-24250D03*
X54750Y-24750D03*
X54750Y-25250D03*
X54750Y-25750D03*
X54750Y-26250D03*
X54750Y-36750D03*
X54750Y-36250D03*
X54750Y-35750D03*
X54750Y-35250D03*
X54750Y-34750D03*
X54750Y-34250D03*
X54750Y-33750D03*
X54750Y-30250D03*
X54750Y-30750D03*
X54750Y-31250D03*
X54750Y-31750D03*
X54750Y-32250D03*
X54750Y-32750D03*
X54750Y-33250D03*
X61000Y-36750D03*
X61000Y-36250D03*
X61000Y-35750D03*
X61000Y-35250D03*
X61000Y-34750D03*
X61000Y-34250D03*
X61000Y-33750D03*
X61000Y-30250D03*
X61000Y-30750D03*
X61000Y-31250D03*
X61000Y-31750D03*
X61000Y-32250D03*
X61000Y-32750D03*
X61000Y-33250D03*
X61000Y-29750D03*
X61000Y-29250D03*
X61000Y-28750D03*
X61000Y-28250D03*
X61000Y-27750D03*
X61000Y-27250D03*
X61000Y-26750D03*
G54D14*
X61000Y-23250D03*
G54D13*
X61000Y-23750D03*
X61000Y-24250D03*
X61000Y-24750D03*
X61000Y-25250D03*
X61000Y-25750D03*
X61000Y-26250D03*
X60250Y-29750D03*
X60250Y-29250D03*
X60250Y-28750D03*
X60250Y-28250D03*
X60250Y-27750D03*
X60250Y-27250D03*
X60250Y-26750D03*
G54D14*
X60250Y-23250D03*
G54D13*
X60250Y-23750D03*
X60250Y-24250D03*
X60250Y-24750D03*
X60250Y-25250D03*
X60250Y-25750D03*
X60250Y-26250D03*
X54000Y-29750D03*
X54000Y-29250D03*
X54000Y-28750D03*
X54000Y-28250D03*
X54000Y-27750D03*
X54000Y-27250D03*
X54000Y-26750D03*
G54D14*
X54000Y-23250D03*
G54D13*
X54000Y-23750D03*
X54000Y-24250D03*
X54000Y-24750D03*
X54000Y-25250D03*
X54000Y-25750D03*
X54000Y-26250D03*
G54D15*
X60400Y-38700D03*
G54D16*
X60400Y-39700D03*
X59400Y-38700D03*
X59400Y-39700D03*
X58400Y-38700D03*
X58400Y-39700D03*
M02*
