%FSLAX34Y34*%
G04 Gerber Fmt 3.4, Leading zero omitted, Abs format*
G04 (created by PCBNEW (2013-12-05 BZR 4523)-product) date Fri 06 Dec 2013 09:05:46 PM CET*
%MOIN*%
G01*
G70*
G90*
G04 APERTURE LIST*
%ADD10C,0.005906*%
%ADD11O,0.150000X0.085000*%
%ADD12R,0.150000X0.085000*%
%ADD13O,0.059055X0.039370*%
%ADD14R,0.059055X0.039370*%
%ADD15R,0.060000X0.060000*%
%ADD16C,0.060000*%
%ADD17R,0.059000X0.051100*%
%ADD18C,0.020000*%
%ADD19C,0.008000*%
G04 APERTURE END LIST*
G54D10*
G54D11*
X56000Y-24500D03*
X56000Y-25500D03*
X56000Y-26500D03*
X56000Y-27500D03*
X56000Y-28500D03*
X56000Y-29500D03*
X56000Y-30500D03*
X56000Y-31500D03*
X56000Y-32500D03*
X56000Y-33500D03*
X56000Y-34500D03*
X56000Y-35500D03*
X56000Y-36500D03*
G54D12*
X56000Y-23500D03*
G54D11*
X59000Y-36500D03*
X59000Y-35500D03*
X59000Y-34500D03*
X59000Y-33500D03*
X59000Y-32500D03*
X59000Y-31500D03*
X59000Y-30500D03*
X59000Y-29500D03*
X59000Y-28500D03*
X59000Y-27500D03*
X59000Y-26500D03*
X59000Y-25500D03*
X59000Y-24500D03*
X59000Y-23500D03*
G54D13*
X54000Y-36750D03*
X54000Y-36250D03*
X54000Y-35750D03*
X54000Y-35250D03*
X54000Y-34750D03*
X54000Y-34250D03*
X54000Y-33750D03*
X54000Y-30250D03*
X54000Y-30750D03*
X54000Y-31250D03*
X54000Y-31750D03*
X54000Y-32250D03*
X54000Y-32750D03*
X54000Y-33250D03*
X60250Y-36750D03*
X60250Y-36250D03*
X60250Y-35750D03*
X60250Y-35250D03*
X60250Y-34750D03*
X60250Y-34250D03*
X60250Y-33750D03*
X60250Y-30250D03*
X60250Y-30750D03*
X60250Y-31250D03*
X60250Y-31750D03*
X60250Y-32250D03*
X60250Y-32750D03*
X60250Y-33250D03*
X54750Y-29750D03*
X54750Y-29250D03*
X54750Y-28750D03*
X54750Y-28250D03*
X54750Y-27750D03*
X54750Y-27250D03*
X54750Y-26750D03*
G54D14*
X54750Y-23250D03*
G54D13*
X54750Y-23750D03*
X54750Y-24250D03*
X54750Y-24750D03*
X54750Y-25250D03*
X54750Y-25750D03*
X54750Y-26250D03*
X54750Y-36750D03*
X54750Y-36250D03*
X54750Y-35750D03*
X54750Y-35250D03*
X54750Y-34750D03*
X54750Y-34250D03*
X54750Y-33750D03*
X54750Y-30250D03*
X54750Y-30750D03*
X54750Y-31250D03*
X54750Y-31750D03*
X54750Y-32250D03*
X54750Y-32750D03*
X54750Y-33250D03*
X61000Y-36750D03*
X61000Y-36250D03*
X61000Y-35750D03*
X61000Y-35250D03*
X61000Y-34750D03*
X61000Y-34250D03*
X61000Y-33750D03*
X61000Y-30250D03*
X61000Y-30750D03*
X61000Y-31250D03*
X61000Y-31750D03*
X61000Y-32250D03*
X61000Y-32750D03*
X61000Y-33250D03*
X61000Y-29750D03*
X61000Y-29250D03*
X61000Y-28750D03*
X61000Y-28250D03*
X61000Y-27750D03*
X61000Y-27250D03*
X61000Y-26750D03*
G54D14*
X61000Y-23250D03*
G54D13*
X61000Y-23750D03*
X61000Y-24250D03*
X61000Y-24750D03*
X61000Y-25250D03*
X61000Y-25750D03*
X61000Y-26250D03*
X60250Y-29750D03*
X60250Y-29250D03*
X60250Y-28750D03*
X60250Y-28250D03*
X60250Y-27750D03*
X60250Y-27250D03*
X60250Y-26750D03*
G54D14*
X60250Y-23250D03*
G54D13*
X60250Y-23750D03*
X60250Y-24250D03*
X60250Y-24750D03*
X60250Y-25250D03*
X60250Y-25750D03*
X60250Y-26250D03*
X54000Y-29750D03*
X54000Y-29250D03*
X54000Y-28750D03*
X54000Y-28250D03*
X54000Y-27750D03*
X54000Y-27250D03*
X54000Y-26750D03*
G54D14*
X54000Y-23250D03*
G54D13*
X54000Y-23750D03*
X54000Y-24250D03*
X54000Y-24750D03*
X54000Y-25250D03*
X54000Y-25750D03*
X54000Y-26250D03*
G54D15*
X60400Y-38700D03*
G54D16*
X60400Y-39700D03*
X59400Y-38700D03*
X59400Y-39700D03*
X58400Y-38700D03*
X58400Y-39700D03*
G54D17*
X55400Y-38926D03*
X55400Y-39674D03*
X56500Y-38926D03*
X56500Y-39674D03*
G54D18*
X61000Y-29250D02*
X60250Y-29250D01*
X60250Y-29750D02*
X61000Y-29750D01*
X59000Y-29500D02*
X60000Y-29500D01*
X60000Y-29500D02*
X60250Y-29750D01*
X60000Y-29500D02*
X60250Y-29250D01*
X54000Y-30750D02*
X54750Y-30750D01*
X54750Y-30750D02*
X54750Y-30500D01*
X54750Y-30500D02*
X54750Y-30250D01*
X54750Y-30250D02*
X54000Y-30250D01*
X56000Y-30500D02*
X55000Y-30500D01*
X55000Y-30500D02*
X54750Y-30750D01*
X55000Y-30500D02*
X54750Y-30250D01*
X57300Y-39700D02*
X57300Y-30800D01*
X57300Y-30800D02*
X57000Y-30500D01*
X56500Y-39674D02*
X55400Y-39674D01*
X58400Y-39700D02*
X57300Y-39700D01*
X57300Y-39700D02*
X56526Y-39700D01*
X56526Y-39700D02*
X56500Y-39674D01*
X56000Y-30500D02*
X57000Y-30500D01*
X58000Y-29500D02*
X59000Y-29500D01*
X57000Y-30500D02*
X58000Y-29500D01*
X60250Y-33250D02*
X61000Y-33250D01*
X60250Y-33750D02*
X61000Y-33750D01*
X59000Y-33500D02*
X60000Y-33500D01*
X60000Y-33500D02*
X60250Y-33750D01*
X60000Y-33500D02*
X60250Y-33250D01*
G54D19*
X60400Y-38700D02*
X60400Y-38200D01*
X58200Y-33500D02*
X59000Y-33500D01*
X57800Y-33900D02*
X58200Y-33500D01*
X57800Y-37000D02*
X57800Y-33900D01*
X58300Y-37500D02*
X57800Y-37000D01*
X59700Y-37500D02*
X58300Y-37500D01*
X60400Y-38200D02*
X59700Y-37500D01*
G54D18*
X60250Y-34250D02*
X61000Y-34250D01*
X60250Y-34750D02*
X61000Y-34750D01*
X59000Y-34500D02*
X60000Y-34500D01*
X60000Y-34500D02*
X60250Y-34750D01*
X60000Y-34500D02*
X60250Y-34250D01*
X56000Y-23500D02*
X55000Y-23500D01*
X55000Y-23500D02*
X54750Y-23750D01*
X55000Y-23500D02*
X54750Y-23250D01*
X54000Y-23750D02*
X54750Y-23750D01*
X54000Y-23250D02*
X54750Y-23250D01*
X61000Y-32250D02*
X60250Y-32250D01*
X60250Y-32750D02*
X61000Y-32750D01*
X59000Y-32500D02*
X60000Y-32500D01*
X60000Y-32500D02*
X60250Y-32750D01*
X60000Y-32500D02*
X60250Y-32250D01*
X54750Y-29250D02*
X54000Y-29250D01*
X54000Y-29750D02*
X54750Y-29750D01*
X56000Y-29500D02*
X55000Y-29500D01*
X55000Y-29500D02*
X54750Y-29750D01*
X55000Y-29500D02*
X54750Y-29250D01*
X55400Y-38926D02*
X54174Y-38926D01*
X60196Y-40403D02*
X60400Y-40200D01*
X54103Y-40403D02*
X60196Y-40403D01*
X53900Y-40200D02*
X54103Y-40403D01*
X53900Y-39200D02*
X53900Y-40200D01*
X60400Y-40200D02*
X60400Y-39700D01*
X54174Y-38926D02*
X53900Y-39200D01*
X55400Y-38926D02*
X56500Y-38926D01*
X54000Y-32250D02*
X54750Y-32250D01*
X54750Y-32750D02*
X54000Y-32750D01*
X56000Y-32500D02*
X55000Y-32500D01*
X55000Y-32500D02*
X54750Y-32750D01*
X55000Y-32500D02*
X54750Y-32250D01*
X54000Y-33250D02*
X54750Y-33250D01*
X54750Y-33750D02*
X54000Y-33750D01*
X56000Y-33500D02*
X55000Y-33500D01*
X55000Y-33500D02*
X54750Y-33750D01*
X55000Y-33500D02*
X54750Y-33250D01*
X54750Y-34750D02*
X54000Y-34750D01*
X54000Y-34250D02*
X54750Y-34250D01*
X56000Y-34500D02*
X55000Y-34500D01*
X55000Y-34500D02*
X54750Y-34750D01*
X55000Y-34500D02*
X54750Y-34250D01*
X54750Y-35750D02*
X54000Y-35750D01*
X54000Y-35250D02*
X54750Y-35250D01*
X56000Y-35500D02*
X55000Y-35500D01*
X55000Y-35500D02*
X54750Y-35750D01*
X55000Y-35500D02*
X54750Y-35250D01*
X54000Y-36250D02*
X54750Y-36250D01*
X54750Y-36750D02*
X54000Y-36750D01*
X56000Y-36500D02*
X55000Y-36500D01*
X55000Y-36500D02*
X54750Y-36750D01*
X55000Y-36500D02*
X54750Y-36250D01*
X60250Y-36250D02*
X61000Y-36250D01*
X60250Y-36750D02*
X61000Y-36750D01*
X59000Y-36500D02*
X60000Y-36500D01*
X60000Y-36500D02*
X60250Y-36750D01*
X60000Y-36500D02*
X60250Y-36250D01*
X60250Y-35250D02*
X61000Y-35250D01*
X60250Y-35750D02*
X61000Y-35750D01*
X59000Y-35500D02*
X60000Y-35500D01*
X60000Y-35500D02*
X60250Y-35750D01*
X60000Y-35500D02*
X60250Y-35250D01*
X56000Y-24500D02*
X55000Y-24500D01*
X55000Y-24500D02*
X54750Y-24750D01*
X55000Y-24500D02*
X54750Y-24250D01*
X54000Y-24750D02*
X54750Y-24750D01*
X54000Y-24250D02*
X54750Y-24250D01*
X60250Y-31250D02*
X61000Y-31250D01*
X60250Y-31750D02*
X61000Y-31750D01*
X59000Y-31500D02*
X60000Y-31500D01*
X60000Y-31500D02*
X60250Y-31750D01*
X60000Y-31500D02*
X60250Y-31250D01*
X61000Y-30250D02*
X60250Y-30250D01*
X60250Y-30750D02*
X61000Y-30750D01*
X59000Y-30500D02*
X60000Y-30500D01*
X60000Y-30500D02*
X60250Y-30750D01*
X60000Y-30500D02*
X60250Y-30250D01*
X60250Y-28250D02*
X61000Y-28250D01*
X60250Y-28750D02*
X61000Y-28750D01*
X59000Y-28500D02*
X60000Y-28500D01*
X60000Y-28500D02*
X60250Y-28750D01*
X60000Y-28500D02*
X60250Y-28250D01*
X60250Y-27250D02*
X61000Y-27250D01*
X60250Y-27750D02*
X61000Y-27750D01*
X59000Y-27500D02*
X60000Y-27500D01*
X60000Y-27500D02*
X60250Y-27750D01*
X60000Y-27500D02*
X60250Y-27250D01*
X60250Y-26250D02*
X61000Y-26250D01*
X60250Y-26750D02*
X61000Y-26750D01*
X59000Y-26500D02*
X60000Y-26500D01*
X60000Y-26500D02*
X60250Y-26750D01*
X60000Y-26500D02*
X60250Y-26250D01*
X60250Y-25250D02*
X61000Y-25250D01*
X60250Y-25750D02*
X61000Y-25750D01*
X59000Y-25500D02*
X60000Y-25500D01*
X60000Y-25500D02*
X60250Y-25750D01*
X60000Y-25500D02*
X60250Y-25250D01*
X60250Y-24250D02*
X61000Y-24250D01*
X60250Y-24750D02*
X61000Y-24750D01*
X59000Y-24500D02*
X60000Y-24500D01*
X60000Y-24500D02*
X60250Y-24750D01*
X60000Y-24500D02*
X60250Y-24250D01*
X60250Y-23250D02*
X61000Y-23250D01*
X60250Y-23750D02*
X61000Y-23750D01*
X59000Y-23500D02*
X60000Y-23500D01*
X60000Y-23500D02*
X60250Y-23750D01*
X60000Y-23500D02*
X60250Y-23250D01*
X56000Y-25500D02*
X55000Y-25500D01*
X55000Y-25500D02*
X54750Y-25750D01*
X55000Y-25500D02*
X54750Y-25250D01*
X54000Y-25750D02*
X54750Y-25750D01*
X54000Y-25250D02*
X54750Y-25250D01*
X56000Y-26500D02*
X55000Y-26500D01*
X55000Y-26500D02*
X54750Y-26750D01*
X55000Y-26500D02*
X54750Y-26250D01*
X54000Y-26750D02*
X54750Y-26750D01*
X54000Y-26250D02*
X54750Y-26250D01*
X54750Y-27750D02*
X54000Y-27750D01*
X56000Y-27500D02*
X55000Y-27500D01*
X55000Y-27500D02*
X54750Y-27750D01*
X54750Y-27250D02*
X54000Y-27250D01*
X55000Y-27500D02*
X54750Y-27250D01*
X54750Y-28250D02*
X54000Y-28250D01*
X54000Y-28750D02*
X54750Y-28750D01*
X56000Y-28500D02*
X55000Y-28500D01*
X55000Y-28500D02*
X54750Y-28750D01*
X55000Y-28500D02*
X54750Y-28250D01*
X54000Y-31250D02*
X54750Y-31250D01*
X54750Y-31750D02*
X54000Y-31750D01*
X56000Y-31500D02*
X55000Y-31500D01*
X55000Y-31500D02*
X54750Y-31750D01*
X55000Y-31500D02*
X54750Y-31250D01*
M02*
