%FSLAX34Y34*%
G04 Gerber Fmt 3.4, Leading zero omitted, Abs format*
G04 (created by PCBNEW (2013-12-05 BZR 4523)-product) date Fri 06 Dec 2013 07:50:23 PM CET*
%MOIN*%
G01*
G70*
G90*
G04 APERTURE LIST*
%ADD10C,0.005906*%
%ADD11C,0.007874*%
G04 APERTURE END LIST*
G54D10*
G54D11*
X57549Y-37928D02*
X57549Y-37534D01*
X57418Y-37815D01*
X57287Y-37534D01*
X57287Y-37928D01*
X56874Y-37890D02*
X56893Y-37909D01*
X56949Y-37928D01*
X56987Y-37928D01*
X57043Y-37909D01*
X57081Y-37871D01*
X57099Y-37834D01*
X57118Y-37759D01*
X57118Y-37703D01*
X57099Y-37628D01*
X57081Y-37590D01*
X57043Y-37553D01*
X56987Y-37534D01*
X56949Y-37534D01*
X56893Y-37553D01*
X56874Y-37571D01*
X56706Y-37534D02*
X56706Y-37853D01*
X56687Y-37890D01*
X56668Y-37909D01*
X56631Y-37928D01*
X56556Y-37928D01*
X56518Y-37909D01*
X56499Y-37890D01*
X56481Y-37853D01*
X56481Y-37534D01*
X55824Y-37928D02*
X55824Y-37721D01*
X55843Y-37684D01*
X55881Y-37665D01*
X55956Y-37665D01*
X55993Y-37684D01*
X55824Y-37909D02*
X55862Y-37928D01*
X55956Y-37928D01*
X55993Y-37909D01*
X56012Y-37871D01*
X56012Y-37834D01*
X55993Y-37796D01*
X55956Y-37778D01*
X55862Y-37778D01*
X55824Y-37759D01*
X55468Y-37928D02*
X55468Y-37534D01*
X55468Y-37909D02*
X55506Y-37928D01*
X55581Y-37928D01*
X55618Y-37909D01*
X55637Y-37890D01*
X55656Y-37853D01*
X55656Y-37740D01*
X55637Y-37703D01*
X55618Y-37684D01*
X55581Y-37665D01*
X55506Y-37665D01*
X55468Y-37684D01*
X55112Y-37928D02*
X55112Y-37721D01*
X55131Y-37684D01*
X55168Y-37665D01*
X55243Y-37665D01*
X55281Y-37684D01*
X55112Y-37909D02*
X55150Y-37928D01*
X55243Y-37928D01*
X55281Y-37909D01*
X55300Y-37871D01*
X55300Y-37834D01*
X55281Y-37796D01*
X55243Y-37778D01*
X55150Y-37778D01*
X55112Y-37759D01*
X54925Y-37665D02*
X54925Y-38059D01*
X54925Y-37684D02*
X54887Y-37665D01*
X54812Y-37665D01*
X54775Y-37684D01*
X54756Y-37703D01*
X54737Y-37740D01*
X54737Y-37853D01*
X54756Y-37890D01*
X54775Y-37909D01*
X54812Y-37928D01*
X54887Y-37928D01*
X54925Y-37909D01*
X54625Y-37665D02*
X54475Y-37665D01*
X54568Y-37534D02*
X54568Y-37871D01*
X54550Y-37909D01*
X54512Y-37928D01*
X54475Y-37928D01*
X54193Y-37909D02*
X54231Y-37928D01*
X54306Y-37928D01*
X54343Y-37909D01*
X54362Y-37871D01*
X54362Y-37721D01*
X54343Y-37684D01*
X54306Y-37665D01*
X54231Y-37665D01*
X54193Y-37684D01*
X54175Y-37721D01*
X54175Y-37759D01*
X54362Y-37796D01*
X54006Y-37928D02*
X54006Y-37665D01*
X54006Y-37740D02*
X53987Y-37703D01*
X53968Y-37684D01*
X53931Y-37665D01*
X53893Y-37665D01*
X57671Y-40034D02*
X57540Y-40428D01*
X57409Y-40034D01*
X57277Y-40390D02*
X57259Y-40409D01*
X57277Y-40428D01*
X57296Y-40409D01*
X57277Y-40390D01*
X57277Y-40428D01*
X57277Y-40184D02*
X57259Y-40203D01*
X57277Y-40221D01*
X57296Y-40203D01*
X57277Y-40184D01*
X57277Y-40221D01*
X56734Y-40203D02*
X56771Y-40184D01*
X56790Y-40165D01*
X56809Y-40128D01*
X56809Y-40109D01*
X56790Y-40071D01*
X56771Y-40053D01*
X56734Y-40034D01*
X56659Y-40034D01*
X56621Y-40053D01*
X56603Y-40071D01*
X56584Y-40109D01*
X56584Y-40128D01*
X56603Y-40165D01*
X56621Y-40184D01*
X56659Y-40203D01*
X56734Y-40203D01*
X56771Y-40221D01*
X56790Y-40240D01*
X56809Y-40278D01*
X56809Y-40353D01*
X56790Y-40390D01*
X56771Y-40409D01*
X56734Y-40428D01*
X56659Y-40428D01*
X56621Y-40409D01*
X56603Y-40390D01*
X56584Y-40353D01*
X56584Y-40278D01*
X56603Y-40240D01*
X56621Y-40221D01*
X56659Y-40203D01*
X56228Y-40034D02*
X56415Y-40034D01*
X56434Y-40221D01*
X56415Y-40203D01*
X56378Y-40184D01*
X56284Y-40184D01*
X56246Y-40203D01*
X56228Y-40221D01*
X56209Y-40259D01*
X56209Y-40353D01*
X56228Y-40390D01*
X56246Y-40409D01*
X56284Y-40428D01*
X56378Y-40428D01*
X56415Y-40409D01*
X56434Y-40390D01*
X55984Y-40203D02*
X56021Y-40184D01*
X56040Y-40165D01*
X56059Y-40128D01*
X56059Y-40109D01*
X56040Y-40071D01*
X56021Y-40053D01*
X55984Y-40034D01*
X55909Y-40034D01*
X55871Y-40053D01*
X55853Y-40071D01*
X55834Y-40109D01*
X55834Y-40128D01*
X55853Y-40165D01*
X55871Y-40184D01*
X55909Y-40203D01*
X55984Y-40203D01*
X56021Y-40221D01*
X56040Y-40240D01*
X56059Y-40278D01*
X56059Y-40353D01*
X56040Y-40390D01*
X56021Y-40409D01*
X55984Y-40428D01*
X55909Y-40428D01*
X55871Y-40409D01*
X55853Y-40390D01*
X55834Y-40353D01*
X55834Y-40278D01*
X55853Y-40240D01*
X55871Y-40221D01*
X55909Y-40203D01*
X55665Y-40428D02*
X55665Y-40034D01*
X55571Y-40034D01*
X55515Y-40053D01*
X55478Y-40090D01*
X55459Y-40128D01*
X55440Y-40203D01*
X55440Y-40259D01*
X55459Y-40334D01*
X55478Y-40371D01*
X55515Y-40409D01*
X55571Y-40428D01*
X55665Y-40428D01*
X55028Y-40034D02*
X54896Y-40428D01*
X54765Y-40034D01*
X54465Y-40165D02*
X54465Y-40428D01*
X54559Y-40015D02*
X54653Y-40296D01*
X54409Y-40296D01*
X54259Y-40390D02*
X54240Y-40409D01*
X54259Y-40428D01*
X54278Y-40409D01*
X54259Y-40390D01*
X54259Y-40428D01*
X53865Y-40428D02*
X54090Y-40428D01*
X53978Y-40428D02*
X53978Y-40034D01*
X54015Y-40090D01*
X54053Y-40128D01*
X54090Y-40146D01*
X57596Y-39678D02*
X57596Y-39284D01*
X57502Y-39284D01*
X57446Y-39303D01*
X57409Y-39340D01*
X57390Y-39378D01*
X57371Y-39453D01*
X57371Y-39509D01*
X57390Y-39584D01*
X57409Y-39621D01*
X57446Y-39659D01*
X57502Y-39678D01*
X57596Y-39678D01*
X57202Y-39640D02*
X57184Y-39659D01*
X57202Y-39678D01*
X57221Y-39659D01*
X57202Y-39640D01*
X57202Y-39678D01*
X57202Y-39434D02*
X57184Y-39453D01*
X57202Y-39471D01*
X57221Y-39453D01*
X57202Y-39434D01*
X57202Y-39471D01*
X56734Y-39321D02*
X56715Y-39303D01*
X56678Y-39284D01*
X56584Y-39284D01*
X56546Y-39303D01*
X56528Y-39321D01*
X56509Y-39359D01*
X56509Y-39396D01*
X56528Y-39453D01*
X56752Y-39678D01*
X56509Y-39678D01*
X56265Y-39284D02*
X56228Y-39284D01*
X56190Y-39303D01*
X56171Y-39321D01*
X56153Y-39359D01*
X56134Y-39434D01*
X56134Y-39528D01*
X56153Y-39603D01*
X56171Y-39640D01*
X56190Y-39659D01*
X56228Y-39678D01*
X56265Y-39678D01*
X56303Y-39659D01*
X56321Y-39640D01*
X56340Y-39603D01*
X56359Y-39528D01*
X56359Y-39434D01*
X56340Y-39359D01*
X56321Y-39321D01*
X56303Y-39303D01*
X56265Y-39284D01*
X55759Y-39678D02*
X55984Y-39678D01*
X55871Y-39678D02*
X55871Y-39284D01*
X55909Y-39340D01*
X55946Y-39378D01*
X55984Y-39396D01*
X55628Y-39284D02*
X55384Y-39284D01*
X55515Y-39434D01*
X55459Y-39434D01*
X55421Y-39453D01*
X55403Y-39471D01*
X55384Y-39509D01*
X55384Y-39603D01*
X55403Y-39640D01*
X55421Y-39659D01*
X55459Y-39678D01*
X55571Y-39678D01*
X55609Y-39659D01*
X55628Y-39640D01*
X55140Y-39284D02*
X55103Y-39284D01*
X55065Y-39303D01*
X55046Y-39321D01*
X55028Y-39359D01*
X55009Y-39434D01*
X55009Y-39528D01*
X55028Y-39603D01*
X55046Y-39640D01*
X55065Y-39659D01*
X55103Y-39678D01*
X55140Y-39678D01*
X55178Y-39659D01*
X55196Y-39640D01*
X55215Y-39603D01*
X55234Y-39528D01*
X55234Y-39434D01*
X55215Y-39359D01*
X55196Y-39321D01*
X55178Y-39303D01*
X55140Y-39284D01*
X54672Y-39415D02*
X54672Y-39678D01*
X54765Y-39265D02*
X54859Y-39546D01*
X54615Y-39546D01*
X54484Y-39321D02*
X54465Y-39303D01*
X54428Y-39284D01*
X54334Y-39284D01*
X54297Y-39303D01*
X54278Y-39321D01*
X54259Y-39359D01*
X54259Y-39396D01*
X54278Y-39453D01*
X54503Y-39678D01*
X54259Y-39678D01*
X53884Y-39678D02*
X54109Y-39678D01*
X53997Y-39678D02*
X53997Y-39284D01*
X54034Y-39340D01*
X54072Y-39378D01*
X54109Y-39396D01*
X57755Y-38740D02*
X57755Y-38928D01*
X57887Y-38534D02*
X57755Y-38740D01*
X57624Y-38534D01*
X57437Y-38928D02*
X57474Y-38909D01*
X57493Y-38890D01*
X57512Y-38853D01*
X57512Y-38740D01*
X57493Y-38703D01*
X57474Y-38684D01*
X57437Y-38665D01*
X57381Y-38665D01*
X57343Y-38684D01*
X57324Y-38703D01*
X57306Y-38740D01*
X57306Y-38853D01*
X57324Y-38890D01*
X57343Y-38909D01*
X57381Y-38928D01*
X57437Y-38928D01*
X56968Y-38665D02*
X56968Y-38928D01*
X57137Y-38665D02*
X57137Y-38871D01*
X57118Y-38909D01*
X57081Y-38928D01*
X57024Y-38928D01*
X56987Y-38909D01*
X56968Y-38890D01*
X56818Y-38665D02*
X56724Y-38928D01*
X56631Y-38665D02*
X56724Y-38928D01*
X56762Y-39021D01*
X56781Y-39040D01*
X56818Y-39059D01*
X56312Y-38665D02*
X56312Y-38928D01*
X56481Y-38665D02*
X56481Y-38871D01*
X56462Y-38909D01*
X56424Y-38928D01*
X56368Y-38928D01*
X56331Y-38909D01*
X56312Y-38890D01*
X55974Y-38909D02*
X56012Y-38928D01*
X56087Y-38928D01*
X56124Y-38909D01*
X56143Y-38871D01*
X56143Y-38721D01*
X56124Y-38684D01*
X56087Y-38665D01*
X56012Y-38665D01*
X55974Y-38684D01*
X55956Y-38721D01*
X55956Y-38759D01*
X56143Y-38796D01*
X55431Y-38703D02*
X55468Y-38684D01*
X55487Y-38665D01*
X55506Y-38628D01*
X55506Y-38609D01*
X55487Y-38571D01*
X55468Y-38553D01*
X55431Y-38534D01*
X55356Y-38534D01*
X55318Y-38553D01*
X55300Y-38571D01*
X55281Y-38609D01*
X55281Y-38628D01*
X55300Y-38665D01*
X55318Y-38684D01*
X55356Y-38703D01*
X55431Y-38703D01*
X55468Y-38721D01*
X55487Y-38740D01*
X55506Y-38778D01*
X55506Y-38853D01*
X55487Y-38890D01*
X55468Y-38909D01*
X55431Y-38928D01*
X55356Y-38928D01*
X55318Y-38909D01*
X55300Y-38890D01*
X55281Y-38853D01*
X55281Y-38778D01*
X55300Y-38740D01*
X55318Y-38721D01*
X55356Y-38703D01*
X54925Y-38534D02*
X55112Y-38534D01*
X55131Y-38721D01*
X55112Y-38703D01*
X55075Y-38684D01*
X54981Y-38684D01*
X54943Y-38703D01*
X54925Y-38721D01*
X54906Y-38759D01*
X54906Y-38853D01*
X54925Y-38890D01*
X54943Y-38909D01*
X54981Y-38928D01*
X55075Y-38928D01*
X55112Y-38909D01*
X55131Y-38890D01*
X54681Y-38703D02*
X54718Y-38684D01*
X54737Y-38665D01*
X54756Y-38628D01*
X54756Y-38609D01*
X54737Y-38571D01*
X54718Y-38553D01*
X54681Y-38534D01*
X54606Y-38534D01*
X54568Y-38553D01*
X54550Y-38571D01*
X54531Y-38609D01*
X54531Y-38628D01*
X54550Y-38665D01*
X54568Y-38684D01*
X54606Y-38703D01*
X54681Y-38703D01*
X54718Y-38721D01*
X54737Y-38740D01*
X54756Y-38778D01*
X54756Y-38853D01*
X54737Y-38890D01*
X54718Y-38909D01*
X54681Y-38928D01*
X54606Y-38928D01*
X54568Y-38909D01*
X54550Y-38890D01*
X54531Y-38853D01*
X54531Y-38778D01*
X54550Y-38740D01*
X54568Y-38721D01*
X54606Y-38703D01*
X54362Y-38928D02*
X54362Y-38534D01*
X54268Y-38534D01*
X54212Y-38553D01*
X54175Y-38590D01*
X54156Y-38628D01*
X54137Y-38703D01*
X54137Y-38759D01*
X54156Y-38834D01*
X54175Y-38871D01*
X54212Y-38909D01*
X54268Y-38928D01*
X54362Y-38928D01*
X53968Y-38778D02*
X53669Y-38778D01*
X53818Y-38928D02*
X53818Y-38628D01*
X57304Y-23937D02*
X57697Y-24068D01*
X57304Y-24199D01*
X57304Y-24405D02*
X57304Y-24443D01*
X57322Y-24480D01*
X57341Y-24499D01*
X57379Y-24518D01*
X57454Y-24536D01*
X57547Y-24536D01*
X57622Y-24518D01*
X57660Y-24499D01*
X57679Y-24480D01*
X57697Y-24443D01*
X57697Y-24405D01*
X57679Y-24368D01*
X57660Y-24349D01*
X57622Y-24330D01*
X57547Y-24311D01*
X57454Y-24311D01*
X57379Y-24330D01*
X57341Y-24349D01*
X57322Y-24368D01*
X57304Y-24405D01*
X57660Y-24705D02*
X57679Y-24724D01*
X57697Y-24705D01*
X57679Y-24686D01*
X57660Y-24705D01*
X57697Y-24705D01*
X57697Y-25099D02*
X57697Y-24874D01*
X57697Y-24986D02*
X57304Y-24986D01*
X57360Y-24949D01*
X57397Y-24911D01*
X57416Y-24874D01*
X57304Y-25343D02*
X57304Y-25380D01*
X57322Y-25418D01*
X57341Y-25436D01*
X57379Y-25455D01*
X57454Y-25474D01*
X57547Y-25474D01*
X57622Y-25455D01*
X57660Y-25436D01*
X57679Y-25418D01*
X57697Y-25380D01*
X57697Y-25343D01*
X57679Y-25305D01*
X57660Y-25286D01*
X57622Y-25268D01*
X57547Y-25249D01*
X57454Y-25249D01*
X57379Y-25268D01*
X57341Y-25286D01*
X57322Y-25305D01*
X57304Y-25343D01*
X57660Y-25643D02*
X57679Y-25661D01*
X57697Y-25643D01*
X57679Y-25624D01*
X57660Y-25643D01*
X57697Y-25643D01*
X57697Y-25999D02*
X57491Y-25999D01*
X57454Y-25980D01*
X57435Y-25943D01*
X57435Y-25868D01*
X57454Y-25830D01*
X57679Y-25999D02*
X57697Y-25961D01*
X57697Y-25868D01*
X57679Y-25830D01*
X57641Y-25811D01*
X57604Y-25811D01*
X57566Y-25830D01*
X57547Y-25868D01*
X57547Y-25961D01*
X57529Y-25999D01*
X57547Y-26486D02*
X57547Y-26786D01*
X57341Y-27255D02*
X57322Y-27274D01*
X57304Y-27311D01*
X57304Y-27405D01*
X57322Y-27442D01*
X57341Y-27461D01*
X57379Y-27480D01*
X57416Y-27480D01*
X57472Y-27461D01*
X57697Y-27236D01*
X57697Y-27480D01*
X57304Y-27724D02*
X57304Y-27761D01*
X57322Y-27799D01*
X57341Y-27817D01*
X57379Y-27836D01*
X57454Y-27855D01*
X57547Y-27855D01*
X57622Y-27836D01*
X57660Y-27817D01*
X57679Y-27799D01*
X57697Y-27761D01*
X57697Y-27724D01*
X57679Y-27686D01*
X57660Y-27667D01*
X57622Y-27649D01*
X57547Y-27630D01*
X57454Y-27630D01*
X57379Y-27649D01*
X57341Y-27667D01*
X57322Y-27686D01*
X57304Y-27724D01*
X57697Y-28230D02*
X57697Y-28005D01*
X57697Y-28117D02*
X57304Y-28117D01*
X57360Y-28080D01*
X57397Y-28042D01*
X57416Y-28005D01*
X57304Y-28361D02*
X57304Y-28605D01*
X57454Y-28473D01*
X57454Y-28530D01*
X57472Y-28567D01*
X57491Y-28586D01*
X57529Y-28605D01*
X57622Y-28605D01*
X57660Y-28586D01*
X57679Y-28567D01*
X57697Y-28530D01*
X57697Y-28417D01*
X57679Y-28380D01*
X57660Y-28361D01*
X57697Y-29073D02*
X57304Y-29073D01*
X57454Y-29073D02*
X57435Y-29111D01*
X57435Y-29186D01*
X57454Y-29223D01*
X57472Y-29242D01*
X57510Y-29261D01*
X57622Y-29261D01*
X57660Y-29242D01*
X57679Y-29223D01*
X57697Y-29186D01*
X57697Y-29111D01*
X57679Y-29073D01*
X57697Y-29486D02*
X57679Y-29448D01*
X57641Y-29430D01*
X57304Y-29430D01*
X57697Y-29692D02*
X57679Y-29655D01*
X57660Y-29636D01*
X57622Y-29617D01*
X57510Y-29617D01*
X57472Y-29636D01*
X57454Y-29655D01*
X57435Y-29692D01*
X57435Y-29748D01*
X57454Y-29786D01*
X57472Y-29805D01*
X57510Y-29823D01*
X57622Y-29823D01*
X57660Y-29805D01*
X57679Y-29786D01*
X57697Y-29748D01*
X57697Y-29692D01*
X57435Y-30161D02*
X57754Y-30161D01*
X57791Y-30142D01*
X57810Y-30123D01*
X57829Y-30086D01*
X57829Y-30029D01*
X57810Y-29992D01*
X57679Y-30161D02*
X57697Y-30123D01*
X57697Y-30048D01*
X57679Y-30011D01*
X57660Y-29992D01*
X57622Y-29973D01*
X57510Y-29973D01*
X57472Y-29992D01*
X57454Y-30011D01*
X57435Y-30048D01*
X57435Y-30123D01*
X57454Y-30161D01*
X57660Y-30348D02*
X57679Y-30367D01*
X57697Y-30348D01*
X57679Y-30329D01*
X57660Y-30348D01*
X57697Y-30348D01*
X57679Y-30517D02*
X57697Y-30554D01*
X57697Y-30629D01*
X57679Y-30667D01*
X57641Y-30686D01*
X57622Y-30686D01*
X57585Y-30667D01*
X57566Y-30629D01*
X57566Y-30573D01*
X57547Y-30536D01*
X57510Y-30517D01*
X57491Y-30517D01*
X57454Y-30536D01*
X57435Y-30573D01*
X57435Y-30629D01*
X57454Y-30667D01*
X57435Y-30854D02*
X57829Y-30854D01*
X57454Y-30854D02*
X57435Y-30892D01*
X57435Y-30967D01*
X57454Y-31004D01*
X57472Y-31023D01*
X57510Y-31042D01*
X57622Y-31042D01*
X57660Y-31023D01*
X57679Y-31004D01*
X57697Y-30967D01*
X57697Y-30892D01*
X57679Y-30854D01*
X57697Y-31211D02*
X57435Y-31211D01*
X57304Y-31211D02*
X57322Y-31192D01*
X57341Y-31211D01*
X57322Y-31229D01*
X57304Y-31211D01*
X57341Y-31211D01*
X57435Y-31342D02*
X57435Y-31492D01*
X57304Y-31398D02*
X57641Y-31398D01*
X57679Y-31417D01*
X57697Y-31454D01*
X57697Y-31492D01*
X57435Y-31586D02*
X57435Y-31792D01*
X57697Y-31586D01*
X57697Y-31792D01*
X57679Y-32092D02*
X57697Y-32054D01*
X57697Y-31979D01*
X57679Y-31942D01*
X57641Y-31923D01*
X57491Y-31923D01*
X57454Y-31942D01*
X57435Y-31979D01*
X57435Y-32054D01*
X57454Y-32092D01*
X57491Y-32110D01*
X57529Y-32110D01*
X57566Y-31923D01*
X57435Y-32279D02*
X57697Y-32279D01*
X57472Y-32279D02*
X57454Y-32298D01*
X57435Y-32335D01*
X57435Y-32392D01*
X57454Y-32429D01*
X57491Y-32448D01*
X57697Y-32448D01*
X57435Y-32635D02*
X57829Y-32635D01*
X57454Y-32635D02*
X57435Y-32673D01*
X57435Y-32748D01*
X57454Y-32785D01*
X57472Y-32804D01*
X57510Y-32823D01*
X57622Y-32823D01*
X57660Y-32804D01*
X57679Y-32785D01*
X57697Y-32748D01*
X57697Y-32673D01*
X57679Y-32635D01*
X57435Y-32935D02*
X57435Y-33085D01*
X57697Y-32992D02*
X57360Y-32992D01*
X57322Y-33010D01*
X57304Y-33048D01*
X57304Y-33085D01*
X57679Y-33367D02*
X57697Y-33329D01*
X57697Y-33254D01*
X57679Y-33217D01*
X57641Y-33198D01*
X57491Y-33198D01*
X57454Y-33217D01*
X57435Y-33254D01*
X57435Y-33329D01*
X57454Y-33367D01*
X57491Y-33385D01*
X57529Y-33385D01*
X57566Y-33198D01*
X57697Y-33554D02*
X57435Y-33554D01*
X57304Y-33554D02*
X57322Y-33535D01*
X57341Y-33554D01*
X57322Y-33573D01*
X57304Y-33554D01*
X57341Y-33554D01*
X57697Y-33798D02*
X57679Y-33760D01*
X57641Y-33742D01*
X57304Y-33742D01*
X57660Y-33948D02*
X57679Y-33967D01*
X57697Y-33948D01*
X57679Y-33929D01*
X57660Y-33948D01*
X57697Y-33948D01*
X57697Y-34191D02*
X57679Y-34154D01*
X57660Y-34135D01*
X57622Y-34116D01*
X57510Y-34116D01*
X57472Y-34135D01*
X57454Y-34154D01*
X57435Y-34191D01*
X57435Y-34248D01*
X57454Y-34285D01*
X57472Y-34304D01*
X57510Y-34323D01*
X57622Y-34323D01*
X57660Y-34304D01*
X57679Y-34285D01*
X57697Y-34248D01*
X57697Y-34191D01*
X57697Y-34491D02*
X57435Y-34491D01*
X57510Y-34491D02*
X57472Y-34510D01*
X57454Y-34529D01*
X57435Y-34566D01*
X57435Y-34604D01*
X57435Y-34904D02*
X57754Y-34904D01*
X57791Y-34885D01*
X57810Y-34866D01*
X57829Y-34829D01*
X57829Y-34773D01*
X57810Y-34735D01*
X57679Y-34904D02*
X57697Y-34866D01*
X57697Y-34791D01*
X57679Y-34754D01*
X57660Y-34735D01*
X57622Y-34716D01*
X57510Y-34716D01*
X57472Y-34735D01*
X57454Y-34754D01*
X57435Y-34791D01*
X57435Y-34866D01*
X57454Y-34904D01*
M02*
