%FSLAX34Y34*%
G04 Gerber Fmt 3.4, Leading zero omitted, Abs format*
G04 (created by PCBNEW (2013-12-05 BZR 4523)-product) date Fri 06 Dec 2013 09:05:46 PM CET*
%MOIN*%
G01*
G70*
G90*
G04 APERTURE LIST*
%ADD10C,0.005906*%
%ADD11C,0.011811*%
%ADD12C,0.015000*%
%ADD13C,0.007874*%
%ADD14C,0.000100*%
%ADD15C,0.008000*%
%ADD16O,0.150000X0.085000*%
%ADD17R,0.150000X0.085000*%
%ADD18O,0.059055X0.039370*%
%ADD19R,0.059055X0.039370*%
%ADD20R,0.060000X0.060000*%
%ADD21C,0.060000*%
%ADD22R,0.059000X0.051100*%
G04 APERTURE END LIST*
G54D10*
G54D11*
X57598Y-33043D02*
X57598Y-32762D01*
X57767Y-33099D02*
X57176Y-32902D01*
X57767Y-32705D01*
X57176Y-32593D02*
X57176Y-32255D01*
X57767Y-32424D02*
X57176Y-32424D01*
X57767Y-32059D02*
X57373Y-32059D01*
X57429Y-32059D02*
X57401Y-32030D01*
X57373Y-31974D01*
X57373Y-31890D01*
X57401Y-31834D01*
X57457Y-31805D01*
X57767Y-31805D01*
X57457Y-31805D02*
X57401Y-31777D01*
X57373Y-31721D01*
X57373Y-31637D01*
X57401Y-31580D01*
X57457Y-31552D01*
X57767Y-31552D01*
X57739Y-31046D02*
X57767Y-31102D01*
X57767Y-31215D01*
X57739Y-31271D01*
X57682Y-31299D01*
X57457Y-31299D01*
X57401Y-31271D01*
X57373Y-31215D01*
X57373Y-31102D01*
X57401Y-31046D01*
X57457Y-31018D01*
X57514Y-31018D01*
X57570Y-31299D01*
X57373Y-30512D02*
X57851Y-30512D01*
X57907Y-30540D01*
X57935Y-30568D01*
X57964Y-30624D01*
X57964Y-30709D01*
X57935Y-30765D01*
X57739Y-30512D02*
X57767Y-30568D01*
X57767Y-30681D01*
X57739Y-30737D01*
X57710Y-30765D01*
X57654Y-30793D01*
X57485Y-30793D01*
X57429Y-30765D01*
X57401Y-30737D01*
X57373Y-30681D01*
X57373Y-30568D01*
X57401Y-30512D01*
X57767Y-29978D02*
X57457Y-29978D01*
X57401Y-30006D01*
X57373Y-30062D01*
X57373Y-30174D01*
X57401Y-30231D01*
X57739Y-29978D02*
X57767Y-30034D01*
X57767Y-30174D01*
X57739Y-30231D01*
X57682Y-30259D01*
X57626Y-30259D01*
X57570Y-30231D01*
X57542Y-30174D01*
X57542Y-30034D01*
X57514Y-29978D01*
X57767Y-29387D02*
X57767Y-29724D01*
X57767Y-29556D02*
X57176Y-29556D01*
X57260Y-29612D01*
X57317Y-29668D01*
X57345Y-29724D01*
X57176Y-28881D02*
X57176Y-28993D01*
X57204Y-29050D01*
X57232Y-29078D01*
X57317Y-29134D01*
X57429Y-29162D01*
X57654Y-29162D01*
X57710Y-29134D01*
X57739Y-29106D01*
X57767Y-29050D01*
X57767Y-28937D01*
X57739Y-28881D01*
X57710Y-28853D01*
X57654Y-28825D01*
X57514Y-28825D01*
X57457Y-28853D01*
X57429Y-28881D01*
X57401Y-28937D01*
X57401Y-29050D01*
X57429Y-29106D01*
X57457Y-29134D01*
X57514Y-29162D01*
X57429Y-28487D02*
X57401Y-28543D01*
X57373Y-28571D01*
X57317Y-28600D01*
X57289Y-28600D01*
X57232Y-28571D01*
X57204Y-28543D01*
X57176Y-28487D01*
X57176Y-28375D01*
X57204Y-28318D01*
X57232Y-28290D01*
X57289Y-28262D01*
X57317Y-28262D01*
X57373Y-28290D01*
X57401Y-28318D01*
X57429Y-28375D01*
X57429Y-28487D01*
X57457Y-28543D01*
X57485Y-28571D01*
X57542Y-28600D01*
X57654Y-28600D01*
X57710Y-28571D01*
X57739Y-28543D01*
X57767Y-28487D01*
X57767Y-28375D01*
X57739Y-28318D01*
X57710Y-28290D01*
X57654Y-28262D01*
X57542Y-28262D01*
X57485Y-28290D01*
X57457Y-28318D01*
X57429Y-28375D01*
X57148Y-27587D02*
X57907Y-28093D01*
X57176Y-27447D02*
X57176Y-27081D01*
X57401Y-27278D01*
X57401Y-27194D01*
X57429Y-27137D01*
X57457Y-27109D01*
X57514Y-27081D01*
X57654Y-27081D01*
X57710Y-27109D01*
X57739Y-27137D01*
X57767Y-27194D01*
X57767Y-27362D01*
X57739Y-27419D01*
X57710Y-27447D01*
X57232Y-26856D02*
X57204Y-26828D01*
X57176Y-26772D01*
X57176Y-26631D01*
X57204Y-26575D01*
X57232Y-26547D01*
X57289Y-26519D01*
X57345Y-26519D01*
X57429Y-26547D01*
X57767Y-26884D01*
X57767Y-26519D01*
X57429Y-26181D02*
X57401Y-26237D01*
X57373Y-26266D01*
X57317Y-26294D01*
X57289Y-26294D01*
X57232Y-26266D01*
X57204Y-26237D01*
X57176Y-26181D01*
X57176Y-26069D01*
X57204Y-26012D01*
X57232Y-25984D01*
X57289Y-25956D01*
X57317Y-25956D01*
X57373Y-25984D01*
X57401Y-26012D01*
X57429Y-26069D01*
X57429Y-26181D01*
X57457Y-26237D01*
X57485Y-26266D01*
X57542Y-26294D01*
X57654Y-26294D01*
X57710Y-26266D01*
X57739Y-26237D01*
X57767Y-26181D01*
X57767Y-26069D01*
X57739Y-26012D01*
X57710Y-25984D01*
X57654Y-25956D01*
X57542Y-25956D01*
X57485Y-25984D01*
X57457Y-26012D01*
X57429Y-26069D01*
G54D12*
X57800Y-23150D02*
X57800Y-23400D01*
X57800Y-23400D02*
X57200Y-23400D01*
X57200Y-23400D02*
X57200Y-23150D01*
X56500Y-36850D02*
X56500Y-23150D01*
X58500Y-23150D02*
X58500Y-36850D01*
X58500Y-36850D02*
X56500Y-36850D01*
X58500Y-23150D02*
X56500Y-23150D01*
G54D13*
X61150Y-38700D02*
X61150Y-37950D01*
X61150Y-37950D02*
X60400Y-37950D01*
X57900Y-38200D02*
X60900Y-38200D01*
X60900Y-40200D02*
X57900Y-40200D01*
X57900Y-40200D02*
X57900Y-38200D01*
X60900Y-38200D02*
X60900Y-40200D01*
X55833Y-40087D02*
X55833Y-38512D01*
X55833Y-40087D02*
X54966Y-40087D01*
X54966Y-40087D02*
X54966Y-38512D01*
X54966Y-38512D02*
X55833Y-38512D01*
X56933Y-40087D02*
X56933Y-38512D01*
X56933Y-40087D02*
X56066Y-40087D01*
X56066Y-40087D02*
X56066Y-38512D01*
X56066Y-38512D02*
X56933Y-38512D01*
G54D14*
G36*
X54435Y-38626D02*
X54450Y-38624D01*
X54463Y-38620D01*
X54469Y-38617D01*
X54482Y-38608D01*
X54492Y-38597D01*
X54499Y-38585D01*
X54504Y-38571D01*
X54507Y-38557D01*
X54506Y-38542D01*
X54503Y-38528D01*
X54496Y-38514D01*
X54492Y-38508D01*
X54486Y-38501D01*
X54479Y-38495D01*
X54473Y-38490D01*
X54471Y-38489D01*
X54458Y-38483D01*
X54445Y-38480D01*
X54430Y-38479D01*
X54425Y-38479D01*
X54417Y-38480D01*
X54410Y-38482D01*
X54402Y-38486D01*
X54393Y-38490D01*
X54381Y-38500D01*
X54372Y-38512D01*
X54364Y-38525D01*
X54362Y-38531D01*
X54360Y-38539D01*
X54359Y-38544D01*
X54359Y-38545D01*
X54359Y-38545D01*
X54359Y-38542D01*
X54359Y-38542D01*
X54356Y-38532D01*
X54353Y-38523D01*
X54348Y-38514D01*
X54340Y-38503D01*
X54329Y-38493D01*
X54316Y-38485D01*
X54301Y-38480D01*
X54286Y-38479D01*
X54282Y-38479D01*
X54270Y-38480D01*
X54259Y-38483D01*
X54257Y-38484D01*
X54244Y-38491D01*
X54233Y-38500D01*
X54224Y-38512D01*
X54217Y-38524D01*
X54213Y-38537D01*
X54213Y-38538D01*
X54212Y-38541D01*
X54212Y-38543D01*
X54212Y-38543D01*
X54212Y-38541D01*
X54211Y-38537D01*
X54211Y-38536D01*
X54206Y-38523D01*
X54199Y-38510D01*
X54190Y-38499D01*
X54181Y-38492D01*
X54168Y-38485D01*
X54154Y-38480D01*
X54138Y-38479D01*
X54127Y-38480D01*
X54113Y-38483D01*
X54099Y-38490D01*
X54087Y-38499D01*
X54078Y-38511D01*
X54076Y-38513D01*
X54073Y-38518D01*
X54071Y-38523D01*
X54070Y-38526D01*
X54067Y-38533D01*
X54066Y-38539D01*
X54065Y-38544D01*
X54065Y-38545D01*
X54065Y-38545D01*
X54064Y-38542D01*
X54063Y-38534D01*
X54059Y-38524D01*
X54055Y-38515D01*
X54046Y-38503D01*
X54034Y-38493D01*
X54021Y-38485D01*
X54007Y-38480D01*
X53992Y-38479D01*
X53978Y-38480D01*
X53963Y-38484D01*
X53950Y-38491D01*
X53938Y-38501D01*
X53932Y-38508D01*
X53927Y-38516D01*
X53922Y-38525D01*
X53920Y-38533D01*
X53917Y-38548D01*
X53918Y-38562D01*
X53921Y-38576D01*
X53927Y-38589D01*
X53935Y-38600D01*
X53945Y-38610D01*
X53957Y-38618D01*
X53970Y-38623D01*
X53985Y-38626D01*
X53987Y-38626D01*
X54002Y-38626D01*
X54016Y-38622D01*
X54029Y-38616D01*
X54034Y-38612D01*
X54044Y-38604D01*
X54053Y-38593D01*
X54059Y-38582D01*
X54060Y-38578D01*
X54062Y-38572D01*
X54064Y-38565D01*
X54065Y-38560D01*
X54065Y-38557D01*
X54065Y-38560D01*
X54065Y-38563D01*
X54067Y-38569D01*
X54069Y-38577D01*
X54071Y-38583D01*
X54075Y-38590D01*
X54084Y-38602D01*
X54095Y-38612D01*
X54108Y-38620D01*
X54123Y-38625D01*
X54125Y-38625D01*
X54135Y-38626D01*
X54146Y-38626D01*
X54156Y-38624D01*
X54166Y-38621D01*
X54179Y-38614D01*
X54192Y-38604D01*
X54192Y-38603D01*
X54201Y-38593D01*
X54207Y-38580D01*
X54211Y-38568D01*
X54211Y-38567D01*
X54212Y-38564D01*
X54212Y-38562D01*
X54212Y-38563D01*
X54213Y-38566D01*
X54213Y-38567D01*
X54215Y-38575D01*
X54218Y-38583D01*
X54223Y-38591D01*
X54229Y-38600D01*
X54240Y-38611D01*
X54253Y-38619D01*
X54268Y-38624D01*
X54270Y-38625D01*
X54280Y-38626D01*
X54291Y-38626D01*
X54301Y-38625D01*
X54309Y-38622D01*
X54323Y-38616D01*
X54335Y-38607D01*
X54345Y-38596D01*
X54353Y-38583D01*
X54354Y-38579D01*
X54357Y-38572D01*
X54358Y-38565D01*
X54359Y-38560D01*
X54359Y-38560D01*
X54359Y-38560D01*
X54360Y-38563D01*
X54360Y-38563D01*
X54362Y-38572D01*
X54366Y-38582D01*
X54370Y-38591D01*
X54372Y-38594D01*
X54381Y-38605D01*
X54393Y-38614D01*
X54406Y-38621D01*
X54420Y-38625D01*
X54435Y-38626D01*
X54435Y-38626D01*
G37*
G36*
X53839Y-38479D02*
X53848Y-38478D01*
X53856Y-38478D01*
X53866Y-38475D01*
X53880Y-38469D01*
X53892Y-38460D01*
X53902Y-38449D01*
X53910Y-38436D01*
X53915Y-38422D01*
X53917Y-38407D01*
X53916Y-38392D01*
X53912Y-38378D01*
X53906Y-38365D01*
X53896Y-38353D01*
X53884Y-38343D01*
X53881Y-38341D01*
X53866Y-38335D01*
X53852Y-38331D01*
X53836Y-38331D01*
X53821Y-38334D01*
X53809Y-38339D01*
X53796Y-38348D01*
X53786Y-38359D01*
X53777Y-38372D01*
X53772Y-38387D01*
X53770Y-38394D01*
X53770Y-38404D01*
X53770Y-38413D01*
X53771Y-38421D01*
X53772Y-38424D01*
X53778Y-38439D01*
X53786Y-38452D01*
X53798Y-38463D01*
X53811Y-38471D01*
X53817Y-38474D01*
X53826Y-38477D01*
X53834Y-38478D01*
X53839Y-38479D01*
X53839Y-38479D01*
G37*
G36*
X54582Y-38479D02*
X54597Y-38477D01*
X54612Y-38472D01*
X54626Y-38463D01*
X54629Y-38461D01*
X54639Y-38450D01*
X54647Y-38437D01*
X54652Y-38423D01*
X54654Y-38415D01*
X54654Y-38406D01*
X54654Y-38396D01*
X54653Y-38389D01*
X54652Y-38385D01*
X54646Y-38370D01*
X54638Y-38358D01*
X54627Y-38347D01*
X54614Y-38339D01*
X54600Y-38334D01*
X54585Y-38331D01*
X54579Y-38331D01*
X54564Y-38333D01*
X54550Y-38337D01*
X54538Y-38345D01*
X54527Y-38354D01*
X54518Y-38366D01*
X54512Y-38379D01*
X54508Y-38393D01*
X54507Y-38408D01*
X54508Y-38417D01*
X54510Y-38425D01*
X54513Y-38434D01*
X54519Y-38445D01*
X54528Y-38457D01*
X54540Y-38466D01*
X54553Y-38473D01*
X54567Y-38477D01*
X54582Y-38479D01*
X54582Y-38479D01*
G37*
G36*
X53692Y-38331D02*
X53702Y-38331D01*
X53711Y-38329D01*
X53722Y-38326D01*
X53735Y-38319D01*
X53748Y-38309D01*
X53756Y-38300D01*
X53763Y-38287D01*
X53768Y-38273D01*
X53769Y-38267D01*
X53769Y-38258D01*
X53769Y-38249D01*
X53768Y-38242D01*
X53767Y-38237D01*
X53761Y-38223D01*
X53753Y-38210D01*
X53742Y-38199D01*
X53728Y-38191D01*
X53723Y-38189D01*
X53714Y-38185D01*
X53704Y-38184D01*
X53693Y-38184D01*
X53686Y-38184D01*
X53678Y-38185D01*
X53671Y-38187D01*
X53663Y-38191D01*
X53658Y-38194D01*
X53646Y-38203D01*
X53636Y-38214D01*
X53628Y-38228D01*
X53623Y-38243D01*
X53623Y-38246D01*
X53622Y-38255D01*
X53622Y-38264D01*
X53623Y-38272D01*
X53624Y-38277D01*
X53630Y-38291D01*
X53639Y-38304D01*
X53649Y-38315D01*
X53663Y-38323D01*
X53677Y-38329D01*
X53682Y-38330D01*
X53692Y-38331D01*
X53692Y-38331D01*
G37*
G36*
X54284Y-38331D02*
X54298Y-38330D01*
X54312Y-38326D01*
X54321Y-38322D01*
X54333Y-38313D01*
X54344Y-38302D01*
X54352Y-38289D01*
X54357Y-38275D01*
X54358Y-38272D01*
X54359Y-38260D01*
X54359Y-38249D01*
X54356Y-38236D01*
X54350Y-38221D01*
X54341Y-38209D01*
X54330Y-38199D01*
X54317Y-38191D01*
X54302Y-38185D01*
X54293Y-38183D01*
X54298Y-38182D01*
X54299Y-38182D01*
X54309Y-38179D01*
X54320Y-38174D01*
X54331Y-38168D01*
X54332Y-38166D01*
X54343Y-38156D01*
X54351Y-38143D01*
X54356Y-38129D01*
X54359Y-38115D01*
X54359Y-38101D01*
X54355Y-38087D01*
X54349Y-38073D01*
X54349Y-38072D01*
X54339Y-38060D01*
X54328Y-38050D01*
X54316Y-38043D01*
X54302Y-38039D01*
X54288Y-38037D01*
X54274Y-38038D01*
X54260Y-38041D01*
X54247Y-38048D01*
X54234Y-38057D01*
X54228Y-38064D01*
X54221Y-38075D01*
X54215Y-38086D01*
X54213Y-38097D01*
X54212Y-38100D01*
X54212Y-38101D01*
X54212Y-38100D01*
X54211Y-38097D01*
X54209Y-38087D01*
X54204Y-38077D01*
X54198Y-38067D01*
X54194Y-38062D01*
X54183Y-38052D01*
X54170Y-38044D01*
X54156Y-38039D01*
X54141Y-38037D01*
X54126Y-38038D01*
X54117Y-38040D01*
X54103Y-38046D01*
X54091Y-38054D01*
X54080Y-38065D01*
X54072Y-38078D01*
X54067Y-38093D01*
X54066Y-38100D01*
X54065Y-38115D01*
X54068Y-38129D01*
X54073Y-38143D01*
X54081Y-38156D01*
X54092Y-38166D01*
X54105Y-38175D01*
X54111Y-38178D01*
X54118Y-38180D01*
X54124Y-38182D01*
X54129Y-38183D01*
X54129Y-38183D01*
X54129Y-38183D01*
X54126Y-38184D01*
X54119Y-38186D01*
X54109Y-38190D01*
X54100Y-38194D01*
X54096Y-38197D01*
X54086Y-38206D01*
X54077Y-38216D01*
X54071Y-38227D01*
X54067Y-38240D01*
X54065Y-38253D01*
X54065Y-38266D01*
X54066Y-38268D01*
X54070Y-38284D01*
X54077Y-38297D01*
X54087Y-38309D01*
X54095Y-38317D01*
X54108Y-38325D01*
X54123Y-38329D01*
X54128Y-38330D01*
X54136Y-38331D01*
X54145Y-38330D01*
X54153Y-38330D01*
X54159Y-38328D01*
X54164Y-38327D01*
X54178Y-38320D01*
X54190Y-38310D01*
X54200Y-38298D01*
X54204Y-38292D01*
X54208Y-38282D01*
X54211Y-38272D01*
X54211Y-38272D01*
X54212Y-38268D01*
X54212Y-38267D01*
X54212Y-38267D01*
X54212Y-38247D01*
X54212Y-38247D01*
X54212Y-38246D01*
X54211Y-38242D01*
X54211Y-38241D01*
X54206Y-38228D01*
X54199Y-38215D01*
X54190Y-38204D01*
X54179Y-38195D01*
X54166Y-38189D01*
X54165Y-38188D01*
X54159Y-38186D01*
X54153Y-38185D01*
X54146Y-38183D01*
X54152Y-38182D01*
X54161Y-38180D01*
X54174Y-38174D01*
X54186Y-38166D01*
X54197Y-38155D01*
X54205Y-38143D01*
X54207Y-38137D01*
X54210Y-38129D01*
X54211Y-38123D01*
X54212Y-38120D01*
X54212Y-38119D01*
X54212Y-38120D01*
X54213Y-38123D01*
X54214Y-38128D01*
X54216Y-38136D01*
X54219Y-38143D01*
X54224Y-38151D01*
X54234Y-38162D01*
X54245Y-38171D01*
X54258Y-38178D01*
X54272Y-38182D01*
X54278Y-38183D01*
X54272Y-38185D01*
X54271Y-38185D01*
X54264Y-38186D01*
X54258Y-38189D01*
X54257Y-38189D01*
X54244Y-38196D01*
X54233Y-38205D01*
X54224Y-38216D01*
X54217Y-38229D01*
X54213Y-38242D01*
X54213Y-38242D01*
X54212Y-38246D01*
X54212Y-38247D01*
X54212Y-38267D01*
X54212Y-38267D01*
X54212Y-38269D01*
X54213Y-38272D01*
X54216Y-38282D01*
X54222Y-38295D01*
X54231Y-38307D01*
X54242Y-38317D01*
X54255Y-38324D01*
X54255Y-38324D01*
X54269Y-38329D01*
X54284Y-38331D01*
X54284Y-38331D01*
G37*
G36*
X54723Y-38331D02*
X54735Y-38331D01*
X54746Y-38329D01*
X54753Y-38327D01*
X54767Y-38320D01*
X54779Y-38311D01*
X54789Y-38300D01*
X54796Y-38287D01*
X54800Y-38273D01*
X54802Y-38257D01*
X54802Y-38251D01*
X54799Y-38236D01*
X54793Y-38222D01*
X54784Y-38208D01*
X54781Y-38206D01*
X54771Y-38197D01*
X54759Y-38190D01*
X54746Y-38185D01*
X54745Y-38185D01*
X54734Y-38184D01*
X54722Y-38184D01*
X54711Y-38185D01*
X54707Y-38186D01*
X54693Y-38192D01*
X54681Y-38201D01*
X54671Y-38211D01*
X54663Y-38223D01*
X54657Y-38236D01*
X54655Y-38251D01*
X54655Y-38266D01*
X54658Y-38281D01*
X54663Y-38292D01*
X54672Y-38304D01*
X54683Y-38315D01*
X54695Y-38323D01*
X54710Y-38329D01*
X54711Y-38329D01*
X54723Y-38331D01*
X54723Y-38331D01*
G37*
G36*
X53993Y-37889D02*
X54008Y-37887D01*
X54022Y-37882D01*
X54029Y-37879D01*
X54035Y-37874D01*
X54042Y-37868D01*
X54050Y-37860D01*
X54058Y-37847D01*
X54063Y-37833D01*
X54064Y-37829D01*
X54065Y-37819D01*
X54065Y-37809D01*
X54063Y-37800D01*
X54059Y-37787D01*
X54053Y-37774D01*
X54044Y-37763D01*
X54042Y-37762D01*
X54035Y-37756D01*
X54027Y-37751D01*
X54020Y-37747D01*
X54017Y-37746D01*
X54011Y-37744D01*
X54005Y-37743D01*
X54001Y-37742D01*
X53998Y-37742D01*
X54001Y-37741D01*
X54005Y-37740D01*
X54009Y-37739D01*
X54015Y-37738D01*
X54026Y-37732D01*
X54037Y-37726D01*
X54045Y-37718D01*
X54047Y-37716D01*
X54056Y-37703D01*
X54062Y-37689D01*
X54065Y-37675D01*
X54065Y-37660D01*
X54064Y-37656D01*
X54060Y-37641D01*
X54053Y-37628D01*
X54043Y-37615D01*
X54034Y-37608D01*
X54021Y-37600D01*
X54007Y-37595D01*
X54004Y-37595D01*
X53994Y-37594D01*
X53984Y-37594D01*
X53974Y-37596D01*
X53966Y-37598D01*
X53952Y-37605D01*
X53940Y-37614D01*
X53931Y-37625D01*
X53923Y-37638D01*
X53919Y-37652D01*
X53918Y-37654D01*
X53917Y-37657D01*
X53917Y-37659D01*
X53916Y-37657D01*
X53916Y-37654D01*
X53915Y-37648D01*
X53912Y-37641D01*
X53910Y-37635D01*
X53907Y-37631D01*
X53898Y-37618D01*
X53887Y-37608D01*
X53874Y-37600D01*
X53860Y-37596D01*
X53844Y-37594D01*
X53832Y-37595D01*
X53818Y-37598D01*
X53805Y-37605D01*
X53797Y-37610D01*
X53786Y-37621D01*
X53778Y-37633D01*
X53772Y-37647D01*
X53770Y-37661D01*
X53770Y-37676D01*
X53773Y-37690D01*
X53779Y-37704D01*
X53788Y-37716D01*
X53799Y-37727D01*
X53813Y-37735D01*
X53828Y-37740D01*
X53836Y-37742D01*
X53831Y-37742D01*
X53828Y-37743D01*
X53816Y-37746D01*
X53805Y-37752D01*
X53794Y-37760D01*
X53785Y-37769D01*
X53780Y-37777D01*
X53775Y-37787D01*
X53772Y-37797D01*
X53770Y-37805D01*
X53770Y-37814D01*
X53770Y-37824D01*
X53771Y-37831D01*
X53774Y-37840D01*
X53781Y-37854D01*
X53790Y-37866D01*
X53802Y-37876D01*
X53815Y-37884D01*
X53831Y-37888D01*
X53835Y-37889D01*
X53844Y-37889D01*
X53853Y-37888D01*
X53862Y-37887D01*
X53868Y-37885D01*
X53882Y-37878D01*
X53894Y-37869D01*
X53904Y-37858D01*
X53911Y-37845D01*
X53916Y-37830D01*
X53916Y-37829D01*
X53917Y-37825D01*
X53917Y-37826D01*
X53917Y-37805D01*
X53917Y-37805D01*
X53916Y-37802D01*
X53916Y-37801D01*
X53913Y-37791D01*
X53909Y-37781D01*
X53903Y-37771D01*
X53898Y-37766D01*
X53887Y-37755D01*
X53873Y-37748D01*
X53858Y-37743D01*
X53851Y-37741D01*
X53856Y-37740D01*
X53861Y-37739D01*
X53865Y-37738D01*
X53868Y-37737D01*
X53882Y-37731D01*
X53894Y-37721D01*
X53904Y-37710D01*
X53911Y-37697D01*
X53916Y-37683D01*
X53916Y-37680D01*
X53917Y-37678D01*
X53918Y-37679D01*
X53919Y-37683D01*
X53919Y-37684D01*
X53921Y-37692D01*
X53925Y-37700D01*
X53929Y-37708D01*
X53933Y-37713D01*
X53940Y-37720D01*
X53947Y-37727D01*
X53954Y-37732D01*
X53955Y-37732D01*
X53966Y-37737D01*
X53978Y-37740D01*
X53983Y-37741D01*
X53977Y-37743D01*
X53964Y-37746D01*
X53951Y-37753D01*
X53939Y-37762D01*
X53930Y-37773D01*
X53928Y-37777D01*
X53924Y-37784D01*
X53921Y-37792D01*
X53919Y-37799D01*
X53918Y-37804D01*
X53918Y-37804D01*
X53917Y-37805D01*
X53917Y-37826D01*
X53918Y-37826D01*
X53918Y-37829D01*
X53919Y-37833D01*
X53921Y-37838D01*
X53924Y-37845D01*
X53931Y-37858D01*
X53941Y-37869D01*
X53952Y-37878D01*
X53965Y-37884D01*
X53979Y-37888D01*
X53993Y-37889D01*
X53993Y-37889D01*
G37*
G36*
X54437Y-37889D02*
X54451Y-37887D01*
X54465Y-37882D01*
X54478Y-37874D01*
X54488Y-37864D01*
X54497Y-37852D01*
X54503Y-37838D01*
X54505Y-37833D01*
X54506Y-37829D01*
X54506Y-37828D01*
X54507Y-37825D01*
X54507Y-37825D01*
X54507Y-37805D01*
X54506Y-37803D01*
X54505Y-37798D01*
X54502Y-37789D01*
X54496Y-37776D01*
X54487Y-37764D01*
X54475Y-37755D01*
X54462Y-37747D01*
X54448Y-37743D01*
X54441Y-37741D01*
X54446Y-37740D01*
X54446Y-37740D01*
X54458Y-37737D01*
X54470Y-37732D01*
X54474Y-37729D01*
X54482Y-37722D01*
X54489Y-37715D01*
X54495Y-37708D01*
X54498Y-37702D01*
X54503Y-37692D01*
X54505Y-37684D01*
X54506Y-37680D01*
X54507Y-37678D01*
X54507Y-37679D01*
X54508Y-37683D01*
X54511Y-37693D01*
X54518Y-37707D01*
X54528Y-37719D01*
X54539Y-37728D01*
X54552Y-37736D01*
X54568Y-37740D01*
X54573Y-37741D01*
X54566Y-37743D01*
X54559Y-37745D01*
X54545Y-37751D01*
X54532Y-37760D01*
X54522Y-37771D01*
X54518Y-37775D01*
X54515Y-37782D01*
X54511Y-37790D01*
X54509Y-37795D01*
X54508Y-37801D01*
X54508Y-37801D01*
X54507Y-37804D01*
X54507Y-37805D01*
X54507Y-37825D01*
X54507Y-37826D01*
X54508Y-37830D01*
X54509Y-37835D01*
X54514Y-37846D01*
X54519Y-37856D01*
X54524Y-37862D01*
X54535Y-37873D01*
X54548Y-37881D01*
X54563Y-37887D01*
X54569Y-37888D01*
X54579Y-37889D01*
X54590Y-37888D01*
X54599Y-37887D01*
X54600Y-37887D01*
X54615Y-37881D01*
X54628Y-37872D01*
X54638Y-37861D01*
X54647Y-37848D01*
X54652Y-37833D01*
X54654Y-37827D01*
X54654Y-37816D01*
X54654Y-37806D01*
X54652Y-37797D01*
X54650Y-37789D01*
X54645Y-37779D01*
X54639Y-37769D01*
X54632Y-37762D01*
X54623Y-37755D01*
X54613Y-37749D01*
X54610Y-37747D01*
X54603Y-37745D01*
X54596Y-37743D01*
X54591Y-37742D01*
X54590Y-37742D01*
X54592Y-37741D01*
X54596Y-37740D01*
X54605Y-37737D01*
X54614Y-37733D01*
X54622Y-37729D01*
X54624Y-37727D01*
X54634Y-37719D01*
X54642Y-37708D01*
X54648Y-37697D01*
X54651Y-37692D01*
X54654Y-37677D01*
X54654Y-37662D01*
X54652Y-37647D01*
X54651Y-37644D01*
X54644Y-37630D01*
X54635Y-37618D01*
X54624Y-37608D01*
X54611Y-37600D01*
X54596Y-37595D01*
X54594Y-37595D01*
X54584Y-37594D01*
X54573Y-37594D01*
X54564Y-37596D01*
X54561Y-37596D01*
X54547Y-37602D01*
X54534Y-37610D01*
X54523Y-37622D01*
X54514Y-37635D01*
X54512Y-37639D01*
X54510Y-37646D01*
X54508Y-37652D01*
X54508Y-37657D01*
X54508Y-37658D01*
X54507Y-37658D01*
X54506Y-37656D01*
X54505Y-37652D01*
X54503Y-37642D01*
X54496Y-37629D01*
X54487Y-37618D01*
X54476Y-37608D01*
X54463Y-37600D01*
X54463Y-37600D01*
X54450Y-37596D01*
X54435Y-37594D01*
X54420Y-37595D01*
X54406Y-37599D01*
X54398Y-37603D01*
X54385Y-37611D01*
X54375Y-37622D01*
X54367Y-37635D01*
X54361Y-37650D01*
X54361Y-37653D01*
X54359Y-37665D01*
X54360Y-37676D01*
X54363Y-37690D01*
X54369Y-37704D01*
X54378Y-37716D01*
X54389Y-37727D01*
X54402Y-37735D01*
X54417Y-37740D01*
X54420Y-37741D01*
X54423Y-37742D01*
X54423Y-37742D01*
X54419Y-37742D01*
X54410Y-37745D01*
X54401Y-37749D01*
X54392Y-37754D01*
X54384Y-37760D01*
X54374Y-37771D01*
X54366Y-37785D01*
X54365Y-37787D01*
X54360Y-37801D01*
X54359Y-37816D01*
X54361Y-37832D01*
X54366Y-37846D01*
X54369Y-37853D01*
X54374Y-37859D01*
X54380Y-37866D01*
X54380Y-37867D01*
X54392Y-37877D01*
X54406Y-37884D01*
X54420Y-37888D01*
X54422Y-37888D01*
X54437Y-37889D01*
X54437Y-37889D01*
G37*
G36*
X53854Y-40648D02*
X53861Y-40645D01*
X53874Y-40636D01*
X53894Y-40623D01*
X53917Y-40608D01*
X53941Y-40592D01*
X53960Y-40579D01*
X53974Y-40570D01*
X53979Y-40567D01*
X53982Y-40568D01*
X53993Y-40574D01*
X54009Y-40582D01*
X54019Y-40587D01*
X54034Y-40593D01*
X54041Y-40595D01*
X54042Y-40593D01*
X54048Y-40581D01*
X54056Y-40562D01*
X54067Y-40536D01*
X54080Y-40506D01*
X54094Y-40474D01*
X54107Y-40441D01*
X54120Y-40410D01*
X54132Y-40381D01*
X54141Y-40358D01*
X54147Y-40342D01*
X54150Y-40335D01*
X54149Y-40334D01*
X54142Y-40327D01*
X54129Y-40317D01*
X54101Y-40294D01*
X54073Y-40260D01*
X54056Y-40221D01*
X54051Y-40177D01*
X54055Y-40137D01*
X54071Y-40099D01*
X54098Y-40064D01*
X54131Y-40038D01*
X54169Y-40022D01*
X54212Y-40017D01*
X54253Y-40021D01*
X54292Y-40037D01*
X54327Y-40063D01*
X54342Y-40080D01*
X54362Y-40116D01*
X54374Y-40153D01*
X54375Y-40162D01*
X54373Y-40204D01*
X54361Y-40244D01*
X54339Y-40279D01*
X54309Y-40308D01*
X54305Y-40311D01*
X54291Y-40322D01*
X54281Y-40329D01*
X54274Y-40335D01*
X54327Y-40462D01*
X54335Y-40482D01*
X54350Y-40517D01*
X54362Y-40547D01*
X54373Y-40571D01*
X54380Y-40587D01*
X54383Y-40593D01*
X54383Y-40593D01*
X54388Y-40594D01*
X54397Y-40591D01*
X54415Y-40582D01*
X54427Y-40576D01*
X54440Y-40570D01*
X54446Y-40567D01*
X54452Y-40570D01*
X54465Y-40578D01*
X54483Y-40591D01*
X54506Y-40606D01*
X54528Y-40621D01*
X54548Y-40634D01*
X54562Y-40644D01*
X54569Y-40647D01*
X54570Y-40647D01*
X54577Y-40644D01*
X54588Y-40634D01*
X54605Y-40618D01*
X54630Y-40594D01*
X54634Y-40590D01*
X54654Y-40570D01*
X54670Y-40552D01*
X54681Y-40540D01*
X54685Y-40535D01*
X54685Y-40535D01*
X54681Y-40528D01*
X54672Y-40513D01*
X54659Y-40493D01*
X54643Y-40469D01*
X54601Y-40408D01*
X54624Y-40351D01*
X54631Y-40333D01*
X54640Y-40311D01*
X54647Y-40296D01*
X54650Y-40289D01*
X54657Y-40287D01*
X54672Y-40283D01*
X54695Y-40279D01*
X54723Y-40274D01*
X54749Y-40269D01*
X54772Y-40264D01*
X54789Y-40261D01*
X54797Y-40260D01*
X54799Y-40258D01*
X54800Y-40255D01*
X54801Y-40247D01*
X54802Y-40232D01*
X54802Y-40210D01*
X54802Y-40177D01*
X54802Y-40174D01*
X54802Y-40143D01*
X54801Y-40118D01*
X54800Y-40103D01*
X54799Y-40096D01*
X54799Y-40096D01*
X54792Y-40094D01*
X54775Y-40091D01*
X54752Y-40086D01*
X54724Y-40081D01*
X54722Y-40081D01*
X54694Y-40075D01*
X54671Y-40070D01*
X54654Y-40067D01*
X54647Y-40064D01*
X54646Y-40062D01*
X54640Y-40051D01*
X54632Y-40034D01*
X54623Y-40013D01*
X54614Y-39991D01*
X54606Y-39971D01*
X54601Y-39957D01*
X54599Y-39950D01*
X54599Y-39950D01*
X54603Y-39943D01*
X54613Y-39929D01*
X54627Y-39909D01*
X54643Y-39885D01*
X54644Y-39883D01*
X54660Y-39859D01*
X54673Y-39839D01*
X54682Y-39825D01*
X54685Y-39819D01*
X54685Y-39818D01*
X54680Y-39811D01*
X54668Y-39798D01*
X54650Y-39780D01*
X54630Y-39759D01*
X54623Y-39753D01*
X54600Y-39730D01*
X54584Y-39716D01*
X54574Y-39708D01*
X54570Y-39706D01*
X54569Y-39706D01*
X54562Y-39710D01*
X54547Y-39720D01*
X54527Y-39734D01*
X54503Y-39750D01*
X54502Y-39751D01*
X54478Y-39767D01*
X54458Y-39781D01*
X54444Y-39790D01*
X54438Y-39793D01*
X54437Y-39793D01*
X54428Y-39791D01*
X54411Y-39785D01*
X54390Y-39777D01*
X54368Y-39768D01*
X54348Y-39760D01*
X54334Y-39753D01*
X54327Y-39749D01*
X54326Y-39749D01*
X54324Y-39740D01*
X54320Y-39722D01*
X54315Y-39698D01*
X54309Y-39669D01*
X54308Y-39665D01*
X54303Y-39636D01*
X54299Y-39613D01*
X54295Y-39597D01*
X54294Y-39590D01*
X54290Y-39590D01*
X54276Y-39589D01*
X54255Y-39588D01*
X54229Y-39588D01*
X54203Y-39588D01*
X54177Y-39588D01*
X54155Y-39589D01*
X54139Y-39590D01*
X54132Y-39592D01*
X54132Y-39592D01*
X54130Y-39601D01*
X54126Y-39618D01*
X54121Y-39643D01*
X54115Y-39672D01*
X54114Y-39677D01*
X54109Y-39705D01*
X54104Y-39728D01*
X54101Y-39744D01*
X54099Y-39750D01*
X54097Y-39751D01*
X54085Y-39757D01*
X54066Y-39764D01*
X54043Y-39774D01*
X53989Y-39796D01*
X53923Y-39750D01*
X53917Y-39746D01*
X53893Y-39730D01*
X53873Y-39717D01*
X53859Y-39708D01*
X53854Y-39705D01*
X53853Y-39705D01*
X53847Y-39711D01*
X53834Y-39723D01*
X53816Y-39741D01*
X53795Y-39761D01*
X53779Y-39777D01*
X53761Y-39795D01*
X53750Y-39808D01*
X53743Y-39816D01*
X53741Y-39821D01*
X53742Y-39824D01*
X53746Y-39831D01*
X53756Y-39845D01*
X53769Y-39866D01*
X53785Y-39889D01*
X53799Y-39909D01*
X53813Y-39931D01*
X53822Y-39947D01*
X53826Y-39954D01*
X53825Y-39958D01*
X53820Y-39971D01*
X53812Y-39990D01*
X53802Y-40014D01*
X53779Y-40066D01*
X53745Y-40073D01*
X53724Y-40077D01*
X53695Y-40082D01*
X53667Y-40088D01*
X53623Y-40096D01*
X53622Y-40255D01*
X53629Y-40258D01*
X53635Y-40260D01*
X53651Y-40264D01*
X53674Y-40268D01*
X53701Y-40273D01*
X53725Y-40278D01*
X53748Y-40282D01*
X53765Y-40285D01*
X53772Y-40287D01*
X53774Y-40289D01*
X53780Y-40301D01*
X53788Y-40319D01*
X53797Y-40340D01*
X53807Y-40363D01*
X53815Y-40383D01*
X53821Y-40399D01*
X53823Y-40407D01*
X53820Y-40413D01*
X53811Y-40427D01*
X53798Y-40447D01*
X53782Y-40470D01*
X53766Y-40493D01*
X53753Y-40513D01*
X53743Y-40527D01*
X53740Y-40534D01*
X53742Y-40538D01*
X53751Y-40549D01*
X53768Y-40567D01*
X53794Y-40593D01*
X53799Y-40597D01*
X53819Y-40617D01*
X53837Y-40633D01*
X53849Y-40644D01*
X53854Y-40648D01*
X53854Y-40648D01*
G37*
G54D15*
X59009Y-37980D02*
X59009Y-37580D01*
X59180Y-37961D02*
X59238Y-37980D01*
X59333Y-37980D01*
X59371Y-37961D01*
X59390Y-37942D01*
X59409Y-37904D01*
X59409Y-37866D01*
X59390Y-37828D01*
X59371Y-37809D01*
X59333Y-37790D01*
X59257Y-37771D01*
X59219Y-37752D01*
X59200Y-37733D01*
X59180Y-37695D01*
X59180Y-37657D01*
X59200Y-37619D01*
X59219Y-37600D01*
X59257Y-37580D01*
X59352Y-37580D01*
X59409Y-37600D01*
X59580Y-37980D02*
X59580Y-37580D01*
X59733Y-37580D01*
X59771Y-37600D01*
X59790Y-37619D01*
X59809Y-37657D01*
X59809Y-37714D01*
X59790Y-37752D01*
X59771Y-37771D01*
X59733Y-37790D01*
X59580Y-37790D01*
G54D13*
X55347Y-38231D02*
X55329Y-38249D01*
X55272Y-38268D01*
X55235Y-38268D01*
X55179Y-38249D01*
X55141Y-38212D01*
X55122Y-38174D01*
X55104Y-38099D01*
X55104Y-38043D01*
X55122Y-37968D01*
X55141Y-37931D01*
X55179Y-37893D01*
X55235Y-37874D01*
X55272Y-37874D01*
X55329Y-37893D01*
X55347Y-37912D01*
X55497Y-37912D02*
X55516Y-37893D01*
X55553Y-37874D01*
X55647Y-37874D01*
X55685Y-37893D01*
X55703Y-37912D01*
X55722Y-37949D01*
X55722Y-37987D01*
X55703Y-38043D01*
X55479Y-38268D01*
X55722Y-38268D01*
X56430Y-38231D02*
X56411Y-38249D01*
X56355Y-38268D01*
X56317Y-38268D01*
X56261Y-38249D01*
X56224Y-38212D01*
X56205Y-38174D01*
X56186Y-38099D01*
X56186Y-38043D01*
X56205Y-37968D01*
X56224Y-37931D01*
X56261Y-37893D01*
X56317Y-37874D01*
X56355Y-37874D01*
X56411Y-37893D01*
X56430Y-37912D01*
X56805Y-38268D02*
X56580Y-38268D01*
X56692Y-38268D02*
X56692Y-37874D01*
X56655Y-37931D01*
X56617Y-37968D01*
X56580Y-37987D01*
%LPC*%
G54D16*
X56000Y-24500D03*
X56000Y-25500D03*
X56000Y-26500D03*
X56000Y-27500D03*
X56000Y-28500D03*
X56000Y-29500D03*
X56000Y-30500D03*
X56000Y-31500D03*
X56000Y-32500D03*
X56000Y-33500D03*
X56000Y-34500D03*
X56000Y-35500D03*
X56000Y-36500D03*
G54D17*
X56000Y-23500D03*
G54D16*
X59000Y-36500D03*
X59000Y-35500D03*
X59000Y-34500D03*
X59000Y-33500D03*
X59000Y-32500D03*
X59000Y-31500D03*
X59000Y-30500D03*
X59000Y-29500D03*
X59000Y-28500D03*
X59000Y-27500D03*
X59000Y-26500D03*
X59000Y-25500D03*
X59000Y-24500D03*
X59000Y-23500D03*
G54D18*
X54000Y-36750D03*
X54000Y-36250D03*
X54000Y-35750D03*
X54000Y-35250D03*
X54000Y-34750D03*
X54000Y-34250D03*
X54000Y-33750D03*
X54000Y-30250D03*
X54000Y-30750D03*
X54000Y-31250D03*
X54000Y-31750D03*
X54000Y-32250D03*
X54000Y-32750D03*
X54000Y-33250D03*
X60250Y-36750D03*
X60250Y-36250D03*
X60250Y-35750D03*
X60250Y-35250D03*
X60250Y-34750D03*
X60250Y-34250D03*
X60250Y-33750D03*
X60250Y-30250D03*
X60250Y-30750D03*
X60250Y-31250D03*
X60250Y-31750D03*
X60250Y-32250D03*
X60250Y-32750D03*
X60250Y-33250D03*
X54750Y-29750D03*
X54750Y-29250D03*
X54750Y-28750D03*
X54750Y-28250D03*
X54750Y-27750D03*
X54750Y-27250D03*
X54750Y-26750D03*
G54D19*
X54750Y-23250D03*
G54D18*
X54750Y-23750D03*
X54750Y-24250D03*
X54750Y-24750D03*
X54750Y-25250D03*
X54750Y-25750D03*
X54750Y-26250D03*
X54750Y-36750D03*
X54750Y-36250D03*
X54750Y-35750D03*
X54750Y-35250D03*
X54750Y-34750D03*
X54750Y-34250D03*
X54750Y-33750D03*
X54750Y-30250D03*
X54750Y-30750D03*
X54750Y-31250D03*
X54750Y-31750D03*
X54750Y-32250D03*
X54750Y-32750D03*
X54750Y-33250D03*
X61000Y-36750D03*
X61000Y-36250D03*
X61000Y-35750D03*
X61000Y-35250D03*
X61000Y-34750D03*
X61000Y-34250D03*
X61000Y-33750D03*
X61000Y-30250D03*
X61000Y-30750D03*
X61000Y-31250D03*
X61000Y-31750D03*
X61000Y-32250D03*
X61000Y-32750D03*
X61000Y-33250D03*
X61000Y-29750D03*
X61000Y-29250D03*
X61000Y-28750D03*
X61000Y-28250D03*
X61000Y-27750D03*
X61000Y-27250D03*
X61000Y-26750D03*
G54D19*
X61000Y-23250D03*
G54D18*
X61000Y-23750D03*
X61000Y-24250D03*
X61000Y-24750D03*
X61000Y-25250D03*
X61000Y-25750D03*
X61000Y-26250D03*
X60250Y-29750D03*
X60250Y-29250D03*
X60250Y-28750D03*
X60250Y-28250D03*
X60250Y-27750D03*
X60250Y-27250D03*
X60250Y-26750D03*
G54D19*
X60250Y-23250D03*
G54D18*
X60250Y-23750D03*
X60250Y-24250D03*
X60250Y-24750D03*
X60250Y-25250D03*
X60250Y-25750D03*
X60250Y-26250D03*
X54000Y-29750D03*
X54000Y-29250D03*
X54000Y-28750D03*
X54000Y-28250D03*
X54000Y-27750D03*
X54000Y-27250D03*
X54000Y-26750D03*
G54D19*
X54000Y-23250D03*
G54D18*
X54000Y-23750D03*
X54000Y-24250D03*
X54000Y-24750D03*
X54000Y-25250D03*
X54000Y-25750D03*
X54000Y-26250D03*
G54D20*
X60400Y-38700D03*
G54D21*
X60400Y-39700D03*
X59400Y-38700D03*
X59400Y-39700D03*
X58400Y-38700D03*
X58400Y-39700D03*
G54D22*
X55400Y-38926D03*
X55400Y-39674D03*
X56500Y-38926D03*
X56500Y-39674D03*
M02*
