M48
METRIC,TZ
T1C0.700
T2C1.016
T3C1.651
%
G90
G05
T1
X137160Y-059055
X137160Y-060325
X137160Y-061595
X137160Y-062865
X137160Y-064135
X137160Y-065405
X137160Y-066675
X137160Y-067945
X137160Y-069215
X137160Y-070485
X137160Y-071755
X137160Y-073025
X137160Y-074295
X137160Y-075565
X137160Y-076835
X137160Y-078105
X137160Y-079375
X137160Y-080645
X137160Y-081915
X137160Y-083185
X137160Y-084455
X137160Y-085725
X137160Y-086995
X137160Y-088265
X137160Y-089535
X137160Y-090805
X137160Y-092075
X137160Y-093345
X139065Y-059055
X139065Y-060325
X139065Y-061595
X139065Y-062865
X139065Y-064135
X139065Y-065405
X139065Y-066675
X139065Y-067945
X139065Y-069215
X139065Y-070485
X139065Y-071755
X139065Y-073025
X139065Y-074295
X139065Y-075565
X139065Y-076835
X139065Y-078105
X139065Y-079375
X139065Y-080645
X139065Y-081915
X139065Y-083185
X139065Y-084455
X139065Y-085725
X139065Y-086995
X139065Y-088265
X139065Y-089535
X139065Y-090805
X139065Y-092075
X139065Y-093345
X153035Y-059055
X153035Y-060325
X153035Y-061595
X153035Y-062865
X153035Y-064135
X153035Y-065405
X153035Y-066675
X153035Y-067945
X153035Y-069215
X153035Y-070485
X153035Y-071755
X153035Y-073025
X153035Y-074295
X153035Y-075565
X153035Y-076835
X153035Y-078105
X153035Y-079375
X153035Y-080645
X153035Y-081915
X153035Y-083185
X153035Y-084455
X153035Y-085725
X153035Y-086995
X153035Y-088265
X153035Y-089535
X153035Y-090805
X153035Y-092075
X153035Y-093345
X154940Y-059055
X154940Y-060325
X154940Y-061595
X154940Y-062865
X154940Y-064135
X154940Y-065405
X154940Y-066675
X154940Y-067945
X154940Y-069215
X154940Y-070485
X154940Y-071755
X154940Y-073025
X154940Y-074295
X154940Y-075565
X154940Y-076835
X154940Y-078105
X154940Y-079375
X154940Y-080645
X154940Y-081915
X154940Y-083185
X154940Y-084455
X154940Y-085725
X154940Y-086995
X154940Y-088265
X154940Y-089535
X154940Y-090805
X154940Y-092075
X154940Y-093345
T2
X148336Y-098298
X148336Y-100838
X150876Y-098298
X150876Y-100838
X153416Y-098298
X153416Y-100838
T3
X142240Y-059690
X142240Y-062230
X142240Y-064770
X142240Y-067310
X142240Y-069850
X142240Y-072390
X142240Y-074930
X142240Y-077470
X142240Y-080010
X142240Y-082550
X142240Y-085090
X142240Y-087630
X142240Y-090170
X142240Y-092710
X149860Y-059690
X149860Y-062230
X149860Y-064770
X149860Y-067310
X149860Y-069850
X149860Y-072390
X149860Y-074930
X149860Y-077470
X149860Y-080010
X149860Y-082550
X149860Y-085090
X149860Y-087630
X149860Y-090170
X149860Y-092710
T0
M30
